# xmcd
#
# Track frame offsets:
#	150
#	12831
#	26914
#	41477
#	55893
#	71265
#	86282
#	100993
#	115034
#	130006
#	144898
#	160024
#	175324
#	190555
#	202603
#	217761
#	232999
#	246398
#
# Disc length: 3458 seconds
#
# Revision: 0
# Processed by: cddbd v1.5.2PL0 Copyright (c) Steve Scherf et al.
# Submitted via: EasyCDDAExtractor 16.0.6.1
#
DISCID=da0d8012
DTITLE=Γκρέϋ Καίτη - Τραγούδια 45 στροφές-Γκρέϋ Καίτη 1
DYEAR=1996
DGENRE=Λαϊκή
TTITLE0=Γκρέϋ Καίτη-Γκίκα Βούλα - Να μη ζηλεύεις άδικα [1963, Στέλιος Μακρυδάκ
TTITLE0=ης]
TTITLE1=Γκρέϋ Καίτη - Ήρθε ένας ξένος μέσα στην νύχτα [1965, Στέλιος Χρυσίνης]
TTITLE2=Γκρέϋ Καίτη - Θα με φάνε τα ξενύχτια [1964, Στέλ. Χρυσίνης-Σπ. Κεφαλόπ
TTITLE2=ουλος]
TTITLE3=Γκρέϋ Καίτη - Το λυχνάρι της αγάπης [1961, Μπάμπης Μπακάλης]
TTITLE4=Γκρέϋ Καίτη - Μ' αγαπάς όπως εγώ [1966, Β. Καραπατάκης-Ε. Φυλακτός]
TTITLE5=Γκρέϋ Καίτη - Βρε στα έρημα τα χρόνια [1963, Γιάννης Παπαϊωάννου]
TTITLE6=Γκρέϋ Καίτη - Για σένα [1966, Θ. Σοφός-Τόλης Βοσκόπουλος]
TTITLE7=Γκρέϋ Καίτη-Γκίκα Βούλα - Είχες το λόγο σου [1963, Στέλιος Μακρυδάκης]
TTITLE8=Γκρέϋ Καίτη - Στο πεζοδρόμιο της ντροπής [1962, Αν. Αθανασίου]
TTITLE9=Γκρέϋ Καίτη - Πριν πιο πολύ να σ' αγαπήσω [1965, Νίκος Δαλέζιος]
TTITLE10=Γκρέϋ Καίτη - Είσαι η λατρεία μου [1966, Τόλης Βοσκόπουλος-Π. Γιαννακ
TTITLE10=ός]
TTITLE11=Γκρέϋ Καίτη - Μονάχη μου μέσ' στην ζωή [1965, Στέλ. Χρυσίνης-Θ. Γελαδ
TTITLE11=άκης]
TTITLE12=Γκρέϋ Καίτη - Κι εκείνος π' αγαπούσα [1966, Β. Καραπατάκης-Ν. Δαλέζιο
TTITLE12=ς]
TTITLE13=Γκρέϋ Καίτη - Με τα συντρίμια πια θα ζω [1965, Χρ. Κυρίτσης-Γ. Μητρόπ
TTITLE13=ουλος]
TTITLE14=Γκρέϋ Καίτη - Τα πίνω στην υγειά σου [1966, Β. Βασιλειάδης-Πυθαγόρας]
TTITLE15=Γκρέϋ Καίτη - Όποιος ξενητευτεί [1962, Μπάμπης Μπακάλης]
TTITLE16=Γκρέϋ Καίτη-Διονυσίου Στράτος - Με κλάματα πάντα ξυπνώ [1964, Μπάμπης
TTITLE16=Μαρκάκης]
TTITLE17=Γκρέϋ Καίτη - Φεύγω στην ξενητειά [1964, Θ. Σοφός-Σ. Κοντάκας]
EXTD=
EXTT0=
EXTT1=
EXTT2=
EXTT3=
EXTT4=
EXTT5=
EXTT6=
EXTT7=
EXTT8=
EXTT9=
EXTT10=
EXTT11=
EXTT12=
EXTT13=
EXTT14=
EXTT15=
EXTT16=
EXTT17=
PLAYORDER=
